# xmcd
#
# Track frame offsets: 
#        150
#        12760
#        28470
#        48213
#        72709
#        87870
#        109641
#        122192
#        137967
#        152365
#        170668
#        183862
#        203939
#        223062
#
# Disc length: 3212 seconds
#
# Revision: 0
# Processed by: cddbd v1.5.1PL0 Copyright (c) Steve Scherf et al.
# Submitted via: ExactAudioCopy v0.95b2
#
DISCID=c90c8a0e
DTITLE=Circe Link - Let's Go Together
DYEAR=2004
DGENRE=Blues
TTITLE0=Paint The Town Red
TTITLE1=Let's Go Together
TTITLE2=Paper Dragon
TTITLE3=Clemency
TTITLE4=Diamond Jack's
TTITLE5=No More Tears
TTITLE6=You Are The Stars
TTITLE7=High Roller
TTITLE8=Rain Is All Around
TTITLE9=How Many Nights?
TTITLE10=Not The Marrying Kind
TTITLE11=Out Of My Mind
TTITLE12=Black Wings
TTITLE13=Armageddon
EXTD=
EXTT0=
EXTT1=
EXTT2=
EXTT3=
EXTT4=
EXTT5=
EXTT6=
EXTT7=
EXTT8=
EXTT9=
EXTT10=
EXTT11=
EXTT12=
EXTT13=
PLAYORDER=
